<?xml version="1.0" encoding="utf-8"?>
<!-- Generator: Adobe Illustrator 23.0.3, SVG Export Plug-In . SVG Version: 6.00 Build 0)  -->
<svg version="1.1" id="图层_1" xmlns="http://www.w3.org/2000/svg" xmlns:xlink="http://www.w3.org/1999/xlink" x="0px" y="0px"
	 viewBox="0 0 200 200" style="enable-background:new 0 0 200 200;" xml:space="preserve">
<style type="text/css">
	.st0{fill:url(#SVGID_1_);}
	.st1{fill:#33C3DE;}
	.st2{display:none;fill:#33C3DE;}
</style>
<linearGradient id="SVGID_1_" gradientUnits="userSpaceOnUse" x1="98.9" y1="194.6" x2="98.9" y2="11.2725" gradientTransform="matrix(1 0 0 -1 0 202)">
	<stop  offset="0" style="stop-color:#33C3DE;stop-opacity:0.2"/>
	<stop  offset="1" style="stop-color:#3699DD;stop-opacity:0.5"/>
</linearGradient>
<path class="st0" d="M185.4,59.2h-8.5V26c0-2.1-1.7-3.9-3.9-3.9h-23.2V11.3c0-2.1-1.7-3.9-3.9-3.9c-2.1,0-3.9,1.7-3.9,3.9v10.8
	h-23.8V11.3c0-2.1-1.7-3.9-3.9-3.9c-2.1,0-3.9,1.7-3.9,3.9v10.8H86.9V11.3c0-2.1-1.7-3.9-3.9-3.9c-2.1,0-3.9,1.7-3.9,3.9v10.8H55.4
	V11.3c0-2.1-1.7-3.9-3.9-3.9c-2.1,0-3.9,1.7-3.9,3.9v10.8H24.5c-2.1,0-3.9,1.7-3.9,3.9v33.3h-8.5c-2.1,0-3.9,1.7-3.9,3.9v74.3
	c0,2.1,1.7,3.9,3.9,3.9h8.5v33.3c0,2.1,1.7,3.9,3.9,3.9h17.6v8.5c0,2.1,1.7,3.9,3.9,3.9h37.2c2.1,0,3.9-1.7,3.9-3.9v-8.5h24.3v8.5
	c0,2.1,1.7,3.9,3.9,3.9h37.2c2.1,0,3.9-1.7,3.9-3.9v-8.5h16.9c2.1,0,3.9-1.7,3.9-3.9v-33.3h8.5c2.1,0,3.9-1.7,3.9-3.9V63.1
	C189.3,61,187.6,59.2,185.4,59.2z"/>
<g>
	<g>
		<path class="st1" d="M185.4,59.2h-8.5V26c0-2.1-1.7-3.9-3.9-3.9h-23.2V11.3c0-2.1-1.7-3.9-3.9-3.9c-2.1,0-3.9,1.7-3.9,3.9v10.8
			h-23.8V11.3c0-2.1-1.7-3.9-3.9-3.9c-2.1,0-3.9,1.7-3.9,3.9v10.8H86.9V11.3c0-2.1-1.7-3.9-3.9-3.9c-2.1,0-3.9,1.7-3.9,3.9v10.8
			H55.4V11.3c0-2.1-1.7-3.9-3.9-3.9c-2.1,0-3.9,1.7-3.9,3.9v10.8H24.5c-2.1,0-3.9,1.7-3.9,3.9v33.3h-8.5c-2.1,0-3.9,1.7-3.9,3.9
			v74.3c0,2.1,1.7,3.9,3.9,3.9h8.5v33.3c0,2.1,1.7,3.9,3.9,3.9h17.6v8.5c0,2.1,1.7,3.9,3.9,3.9h37.2c2.1,0,3.9-1.7,3.9-3.9v-8.5
			h24.3v8.5c0,2.1,1.7,3.9,3.9,3.9h37.2c2.1,0,3.9-1.7,3.9-3.9v-8.5h16.9c2.1,0,3.9-1.7,3.9-3.9v-33.3h8.5c2.1,0,3.9-1.7,3.9-3.9
			V63.1C189.3,61,187.6,59.2,185.4,59.2z M181.6,133.5h-8.5c-2.1,0-3.9,1.7-3.9,3.9v33.3h-16.9c-2.1,0-3.9,1.7-3.9,3.9v8.5H119l0,0
			v-8.5c0-2.1-1.7-3.9-3.9-3.9h-32c-2.1,0-3.9,1.7-3.9,3.9v8.5H49.8v-8.5c0-2.1-1.7-3.9-3.9-3.9H28.4v-33.3c0-2.1-1.7-3.9-3.9-3.9
			H16V66.9h8.5c2.1,0,3.9-1.7,3.9-3.9V29.8h140.9v33.3c0,2.1,1.7,3.9,3.9,3.9h8.5L181.6,133.5L181.6,133.5z"/>
		<path class="st1" d="M45.4,62.2c-2.1,0-3.9,1.7-3.9,3.9v71.7c0,2.1,1.7,3.9,3.9,3.9s3.9-1.7,3.9-3.9V66
			C49.3,63.9,47.5,62.2,45.4,62.2z"/>
		<path class="st1" d="M152.1,62.2c-2.1,0-3.9,1.7-3.9,3.9v71.7c0,2.1,1.7,3.9,3.9,3.9c2.1,0,3.9-1.7,3.9-3.9V66
			C156,63.9,154.3,62.2,152.1,62.2z"/>
		<path class="st2" d="M98.8,62.2c-2.1,0-3.9,1.7-3.9,3.9v71.7c0,2.1,1.7,3.9,3.9,3.9s3.9-1.7,3.9-3.9V66
			C102.6,63.9,100.9,62.2,98.8,62.2z"/>
	</g>
</g>
<path class="st1" d="M88.4,136.9c-0.5,0-1-0.1-1.4-0.4c-1.3-0.7-1.8-2.2-1.4-3.5l9-28.2H78.2c-1,0-2-0.6-2.6-1.5
	c-0.5-0.9-0.6-2-0.1-2.9L93,68.3c0.5-0.9,1.5-1.5,2.6-1.5h17.5c1.1,0,2,0.6,2.6,1.5c0.5,0.9,0.5,2,0,3l-9.1,16h18.2
	c1.2,0,2.2,0.7,2.7,1.7s0.3,2.3-0.4,3.2L90.6,136C90.1,136.5,89.3,136.9,88.4,136.9z M83.2,98.9h15.4c0.9,0,1.8,0.5,2.4,1.2
	c0.6,0.8,0.7,1.7,0.4,2.7l-5.6,17.6l22.7-27.2h-17c-1.1,0-2-0.6-2.6-1.5c-0.5-0.9-0.5-2,0-3l9.1-16H97.5L83.2,98.9z"/>
</svg>
