<?xml version="1.0" encoding="utf-8"?>
<!-- Generator: Adobe Illustrator 23.0.3, SVG Export Plug-In . SVG Version: 6.00 Build 0)  -->
<svg version="1.1" id="图层_1" xmlns="http://www.w3.org/2000/svg" xmlns:xlink="http://www.w3.org/1999/xlink" x="0px" y="0px"
	 viewBox="0 0 200 200" style="enable-background:new 0 0 200 200;" xml:space="preserve">
<style type="text/css">
	.st0{fill:url(#SVGID_1_);}
	.st1{fill:none;stroke:#33C3DE;stroke-miterlimit:10;}
	.st2{fill:url(#SVGID_2_);}
	.st3{fill:url(#SVGID_3_);}
	.st4{fill:url(#SVGID_4_);}
	.st5{fill:#33C3DE;}
</style>
<g>
	<linearGradient id="SVGID_1_" gradientUnits="userSpaceOnUse" x1="38.5108" y1="24.2941" x2="38.5108" y2="151.0383">
		<stop  offset="0" style="stop-color:#33C3DE;stop-opacity:0.2"/>
		<stop  offset="1" style="stop-color:#3699DD;stop-opacity:0.5"/>
	</linearGradient>
	<path class="st0" d="M59.4,60.1c0-0.5-3.6-1-9.2-1.3v-4.3c3.2-0.3,5.2-0.7,5.2-1.1c0-0.4-2-0.9-5.2-1.1v-4.6
		c5.5-0.3,9.2-0.8,9.2-1.3c0-0.5-3.6-1-9.2-1.3v-1.6c0-3.3-2.6-5.9-5.9-5.9H44v-4h-2.6v-9.2h-5.8v9.2H33v4h-0.3
		c-3.3,0-5.9,2.6-5.9,5.9V45c-5.5,0.3-9.2,0.8-9.2,1.3c0,0.5,3.6,1,9.2,1.3v4.6c-3.2,0.3-5.2,0.7-5.2,1.1c0,0.4,2,0.9,5.2,1.1v4.3
		c-5.5,0.3-9.2,0.8-9.2,1.3c0,0.5,3.6,1,9.2,1.3v5c-3.2,0.3-5.2,0.7-5.2,1.1c0,0.4,2,0.9,5.2,1.1V73c-5.5,0.3-9.2,0.8-9.2,1.3
		s3.6,1,9.2,1.3v4.1h-5.2v11.7h5.2v9.6c-5.5,0.3-9.2,0.8-9.2,1.3c0,0.5,3.6,1,9.2,1.3v5c-3.2,0.3-5.2,0.7-5.2,1.1
		c0,0.4,2,0.9,5.2,1.1v3.9c-5.5,0.3-9.2,0.8-9.2,1.3c0,0.5,3.6,1,9.2,1.3v5c-3.2,0.3-5.2,0.7-5.2,1.1c0,0.4,2,0.9,5.2,1.1v4.6
		c-5.5,0.3-9.2,0.8-9.2,1.3c0,0.5,3.6,1,9.2,1.3v3.9h-0.5v2.6h-3.5c-1.1,0-2,0.9-2,2V151h35.5v-10.6c0-1.1-0.9-2-2-2h-3.5v-2.6h-0.5
		v-3.9c5.5-0.3,9.2-0.8,9.2-1.3c0-0.5-3.6-1-9.2-1.3v-4.6c3.2-0.3,5.2-0.7,5.2-1.1c0-0.4-2-0.9-5.2-1.1v-5c5.5-0.3,9.2-0.8,9.2-1.3
		c0-0.5-3.6-1-9.2-1.3v-3.9c3.2-0.3,5.2-0.7,5.2-1.1c0-0.4-2-0.9-5.2-1.1v-5c5.5-0.3,9.2-0.8,9.2-1.3c0-0.5-3.6-1-9.2-1.3v-9.6h5.2
		V79.6h-5.2v-4.1c5.5-0.3,9.2-0.8,9.2-1.3s-3.6-1-9.2-1.3v-4.3c3.2-0.3,5.2-0.7,5.2-1.1c0-0.4-2-0.9-5.2-1.1v-5
		C55.8,61.1,59.4,60.6,59.4,60.1z"/>
	<g>
		<path class="st1" d="M50.2,108.6v-5c-3.3,0.2-7.4,0.3-11.7,0.3c-4.3,0-8.4-0.1-11.7-0.3v5"/>
		<path class="st1" d="M50.2,100.9v-9.6H26.8v9.6"/>
		<path class="st1" d="M50.2,45v-1.6c0-3.3-2.6-5.9-5.9-5.9H44h-2.6h-5.8H33h-0.3c-3.3,0-5.9,2.6-5.9,5.9V45"/>
		<path class="st1" d="M50.2,129.3v-4.6c-3,0.3-7.2,0.4-11.7,0.4s-8.7-0.2-11.7-0.4v4.6"/>
		<path class="st1" d="M50.2,52.2v-4.6c-3.3,0.2-7.4,0.3-11.7,0.3c-4.3,0-8.4-0.1-11.7-0.3v4.6"/>
		<path class="st1" d="M26.8,131.9v3.9h23.4v-3.9c-3.3,0.2-7.4,0.3-11.7,0.3C34.2,132.2,30.1,132.1,26.8,131.9z"/>
		<path class="st1" d="M50.2,122.3v-5c-3.3,0.2-7.4,0.3-11.7,0.3c-4.3,0-8.4-0.1-11.7-0.3v5"/>
		<path class="st1" d="M50.2,114.7v-3.9c-3,0.3-7.2,0.4-11.7,0.4s-8.7-0.2-11.7-0.4v3.9"/>
		<path class="st1" d="M26.8,75.6v4.1h23.4v-4.1c-3.3,0.2-7.4,0.3-11.7,0.3C34.2,75.8,30.1,75.7,26.8,75.6z"/>
		<path class="st1" d="M50.2,73v-4.3c-3,0.3-7.2,0.4-11.7,0.4s-8.7-0.2-11.7-0.4V73"/>
		<path class="st1" d="M50.2,58.8v-4.3c-3,0.3-7.2,0.4-11.7,0.4s-8.7-0.2-11.7-0.4v4.3"/>
		<path class="st1" d="M50.2,66.4v-5c-3.3,0.2-7.4,0.3-11.7,0.3c-4.3,0-8.4-0.1-11.7-0.3v5"/>
		<path class="st1" d="M17.6,46.3c0,0.5,3.6,1,9.2,1.3V45C21.3,45.3,17.6,45.7,17.6,46.3z"/>
		<path class="st1" d="M59.4,46.3c0-0.5-3.6-1-9.2-1.3v2.6C55.8,47.3,59.4,46.8,59.4,46.3z"/>
		<path class="st1" d="M26.8,45v2.6c3.3,0.2,7.4,0.3,11.7,0.3c4.3,0,8.4-0.1,11.7-0.3"/>
		<path class="st1" d="M17.6,60.1c0,0.5,3.6,1,9.2,1.3v-2.6C21.3,59.1,17.6,59.5,17.6,60.1z"/>
		<path class="st1" d="M59.4,60.1c0-0.5-3.6-1-9.2-1.3v2.6C55.8,61.1,59.4,60.6,59.4,60.1z"/>
		<path class="st1" d="M26.8,58.8v2.6c3.3,0.2,7.4,0.3,11.7,0.3c4.3,0,8.4-0.1,11.7-0.3v-2.6"/>
		<path class="st1" d="M55.5,53.4c0-0.4-2-0.9-5.2-1.1v2.3C53.4,54.2,55.5,53.8,55.5,53.4z"/>
		<path class="st1" d="M21.6,53.4c0,0.4,2,0.9,5.2,1.1v-2.3C23.6,52.5,21.6,52.9,21.6,53.4z"/>
		<path class="st1" d="M26.8,52.2v2.3c3,0.3,7.2,0.4,11.7,0.4s8.7-0.2,11.7-0.4v-2.3"/>
		<path class="st1" d="M17.6,74.3c0,0.5,3.6,1,9.2,1.3V73C21.3,73.2,17.6,73.7,17.6,74.3z"/>
		<path class="st1" d="M59.4,74.3c0-0.5-3.6-1-9.2-1.3v2.6C55.8,75.3,59.4,74.8,59.4,74.3z"/>
		<path class="st1" d="M26.8,73v2.6c3.3,0.2,7.4,0.3,11.7,0.3c4.3,0,8.4-0.1,11.7-0.3V73"/>
		<path class="st1" d="M21.6,67.6c0,0.4,2,0.9,5.2,1.1v-2.3C23.6,66.7,21.6,67.1,21.6,67.6z"/>
		<path class="st1" d="M55.5,67.6c0-0.4-2-0.9-5.2-1.1v2.3C53.4,68.4,55.5,68,55.5,67.6z"/>
		<path class="st1" d="M26.8,66.4v2.3c3,0.3,7.2,0.4,11.7,0.4s8.7-0.2,11.7-0.4v-2.3"/>
		<path class="st1" d="M17.6,102.2c0,0.5,3.6,1,9.2,1.3v-2.6C21.3,101.2,17.6,101.7,17.6,102.2z"/>
		<path class="st1" d="M59.4,102.2c0-0.5-3.6-1-9.2-1.3v2.6C55.8,103.2,59.4,102.8,59.4,102.2z"/>
		<path class="st1" d="M26.8,100.9v2.6c3.3,0.2,7.4,0.3,11.7,0.3c4.3,0,8.4-0.1,11.7-0.3v-2.6"/>
		<path class="st1" d="M17.6,130.6c0,0.5,3.6,1,9.2,1.3v-2.6C21.3,129.6,17.6,130,17.6,130.6z"/>
		<path class="st1" d="M59.4,130.6c0-0.5-3.6-1-9.2-1.3v2.6C55.8,131.6,59.4,131.1,59.4,130.6z"/>
		<path class="st1" d="M26.8,129.3v2.6c3.3,0.2,7.4,0.3,11.7,0.3c4.3,0,8.4-0.1,11.7-0.3v-2.6"/>
		<path class="st1" d="M21.6,109.7c0,0.4,2,0.9,5.2,1.1v-2.3C23.6,108.8,21.6,109.2,21.6,109.7z"/>
		<path class="st1" d="M55.5,109.7c0-0.4-2-0.9-5.2-1.1v2.3C53.4,110.5,55.5,110.1,55.5,109.7z"/>
		<path class="st1" d="M26.8,108.6v2.3c3,0.3,7.2,0.4,11.7,0.4s8.7-0.2,11.7-0.4v-2.3"/>
		<path class="st1" d="M17.6,116c0,0.5,3.6,1,9.2,1.3v-2.6C21.3,115,17.6,115.5,17.6,116z"/>
		<path class="st1" d="M59.4,116c0-0.5-3.6-1-9.2-1.3v2.6C55.8,117,59.4,116.5,59.4,116z"/>
		<path class="st1" d="M26.8,114.7v2.6c3.3,0.2,7.4,0.3,11.7,0.3c4.3,0,8.4-0.1,11.7-0.3v-2.6"/>
		<path class="st1" d="M55.5,123.5c0-0.4-2-0.9-5.2-1.1v2.3C53.4,124.3,55.5,123.9,55.5,123.5z"/>
		<path class="st1" d="M21.6,123.5c0,0.4,2,0.9,5.2,1.1v-2.3C23.6,122.6,21.6,123,21.6,123.5z"/>
		<path class="st1" d="M26.8,122.3v2.3c3,0.3,7.2,0.4,11.7,0.4s8.7-0.2,11.7-0.4v-2.3"/>
		<rect x="21.6" y="79.6" class="st1" width="5.2" height="11.7"/>
		<rect x="50.2" y="79.6" class="st1" width="5.2" height="11.7"/>
		<rect x="26.8" y="79.6" class="st1" width="23.4" height="11.7"/>
		<rect x="33" y="33.5" class="st1" width="2.6" height="4"/>
		<rect x="41.4" y="33.5" class="st1" width="2.6" height="4"/>
		<rect x="35.6" y="24.3" class="st1" width="5.8" height="9.2"/>
		<rect x="35.6" y="33.5" class="st1" width="5.8" height="4"/>
		<path class="st1" d="M22.8,138.4c-1.1,0-2,0.9-2,2V151h35.5v-10.6c0-1.1-0.9-2-2-2h-3.5H26.3H22.8z"/>
		<polygon class="st1" points="26.3,135.8 26.3,138.4 50.7,138.4 50.7,135.8 50.2,135.8 26.8,135.8 		"/>
	</g>
</g>
<g>
	<linearGradient id="SVGID_2_" gradientUnits="userSpaceOnUse" x1="100.3476" y1="24.2941" x2="100.3476" y2="151.0383">
		<stop  offset="0" style="stop-color:#33C3DE;stop-opacity:0.2"/>
		<stop  offset="1" style="stop-color:#3699DD;stop-opacity:0.5"/>
	</linearGradient>
	<path class="st2" d="M121.2,60.1c0-0.5-3.6-1-9.2-1.3v-4.3c3.2-0.3,5.2-0.7,5.2-1.1c0-0.4-2-0.9-5.2-1.1v-4.6
		c5.5-0.3,9.2-0.8,9.2-1.3c0-0.5-3.6-1-9.2-1.3v-1.6c0-3.3-2.6-5.9-5.9-5.9h-0.3v-4h-2.6v-9.2h-5.8v9.2h-2.6v4h-0.3
		c-3.3,0-5.9,2.6-5.9,5.9V45c-5.5,0.3-9.2,0.8-9.2,1.3c0,0.5,3.6,1,9.2,1.3v4.6c-3.2,0.3-5.2,0.7-5.2,1.1c0,0.4,2,0.9,5.2,1.1v4.3
		c-5.5,0.3-9.2,0.8-9.2,1.3c0,0.5,3.6,1,9.2,1.3v5c-3.2,0.3-5.2,0.7-5.2,1.1c0,0.4,2,0.9,5.2,1.1V73c-5.5,0.3-9.2,0.8-9.2,1.3
		s3.6,1,9.2,1.3v4.1h-5.2v11.7h5.2v9.6c-5.5,0.3-9.2,0.8-9.2,1.3c0,0.5,3.6,1,9.2,1.3v5c-3.2,0.3-5.2,0.7-5.2,1.1
		c0,0.4,2,0.9,5.2,1.1v3.9c-5.5,0.3-9.2,0.8-9.2,1.3c0,0.5,3.6,1,9.2,1.3v5c-3.2,0.3-5.2,0.7-5.2,1.1c0,0.4,2,0.9,5.2,1.1v4.6
		c-5.5,0.3-9.2,0.8-9.2,1.3c0,0.5,3.6,1,9.2,1.3v3.9h-0.5v2.6h-3.5c-1.1,0-2,0.9-2,2V151h35.5v-10.6c0-1.1-0.9-2-2-2h-3.5v-2.6h-0.5
		v-3.9c5.5-0.3,9.2-0.8,9.2-1.3c0-0.5-3.6-1-9.2-1.3v-4.6c3.2-0.3,5.2-0.7,5.2-1.1c0-0.4-2-0.9-5.2-1.1v-5c5.5-0.3,9.2-0.8,9.2-1.3
		c0-0.5-3.6-1-9.2-1.3v-3.9c3.2-0.3,5.2-0.7,5.2-1.1c0-0.4-2-0.9-5.2-1.1v-5c5.5-0.3,9.2-0.8,9.2-1.3c0-0.5-3.6-1-9.2-1.3v-9.6h5.2
		V79.6h-5.2v-4.1c5.5-0.3,9.2-0.8,9.2-1.3s-3.6-1-9.2-1.3v-4.3c3.2-0.3,5.2-0.7,5.2-1.1c0-0.4-2-0.9-5.2-1.1v-5
		C117.6,61.1,121.2,60.6,121.2,60.1z"/>
	<g>
		<path class="st1" d="M112.1,108.6v-5c-3.3,0.2-7.4,0.3-11.7,0.3c-4.3,0-8.4-0.1-11.7-0.3v5"/>
		<path class="st1" d="M112.1,100.9v-9.6H88.6v9.6"/>
		<path class="st1" d="M112.1,45v-1.6c0-3.3-2.6-5.9-5.9-5.9h-0.3h-2.6h-5.8h-2.6h-0.3c-3.3,0-5.9,2.6-5.9,5.9V45"/>
		<path class="st1" d="M112.1,129.3v-4.6c-3,0.3-7.2,0.4-11.7,0.4c-4.5,0-8.7-0.2-11.7-0.4v4.6"/>
		<path class="st1" d="M112.1,52.2v-4.6c-3.3,0.2-7.4,0.3-11.7,0.3c-4.3,0-8.4-0.1-11.7-0.3v4.6"/>
		<path class="st1" d="M88.6,131.9v3.9h23.4v-3.9c-3.3,0.2-7.4,0.3-11.7,0.3C96,132.2,92,132.1,88.6,131.9z"/>
		<path class="st1" d="M112.1,122.3v-5c-3.3,0.2-7.4,0.3-11.7,0.3c-4.3,0-8.4-0.1-11.7-0.3v5"/>
		<path class="st1" d="M112.1,114.7v-3.9c-3,0.3-7.2,0.4-11.7,0.4c-4.5,0-8.7-0.2-11.7-0.4v3.9"/>
		<path class="st1" d="M88.6,75.6v4.1h23.4v-4.1c-3.3,0.2-7.4,0.3-11.7,0.3C96,75.8,92,75.7,88.6,75.6z"/>
		<path class="st1" d="M112.1,73v-4.3c-3,0.3-7.2,0.4-11.7,0.4c-4.5,0-8.7-0.2-11.7-0.4V73"/>
		<path class="st1" d="M112.1,58.8v-4.3c-3,0.3-7.2,0.4-11.7,0.4c-4.5,0-8.7-0.2-11.7-0.4v4.3"/>
		<path class="st1" d="M112.1,66.4v-5c-3.3,0.2-7.4,0.3-11.7,0.3c-4.3,0-8.4-0.1-11.7-0.3v5"/>
		<path class="st1" d="M79.5,46.3c0,0.5,3.6,1,9.2,1.3V45C83.1,45.3,79.5,45.7,79.5,46.3z"/>
		<path class="st1" d="M121.2,46.3c0-0.5-3.6-1-9.2-1.3v2.6C117.6,47.3,121.2,46.8,121.2,46.3z"/>
		<path class="st1" d="M88.6,45v2.6c3.3,0.2,7.4,0.3,11.7,0.3c4.3,0,8.4-0.1,11.7-0.3"/>
		<path class="st1" d="M79.5,60.1c0,0.5,3.6,1,9.2,1.3v-2.6C83.1,59.1,79.5,59.5,79.5,60.1z"/>
		<path class="st1" d="M121.2,60.1c0-0.5-3.6-1-9.2-1.3v2.6C117.6,61.1,121.2,60.6,121.2,60.1z"/>
		<path class="st1" d="M88.6,58.8v2.6c3.3,0.2,7.4,0.3,11.7,0.3c4.3,0,8.4-0.1,11.7-0.3v-2.6"/>
		<path class="st1" d="M117.3,53.4c0-0.4-2-0.9-5.2-1.1v2.3C115.3,54.2,117.3,53.8,117.3,53.4z"/>
		<path class="st1" d="M83.4,53.4c0,0.4,2,0.9,5.2,1.1v-2.3C85.4,52.5,83.4,52.9,83.4,53.4z"/>
		<path class="st1" d="M88.6,52.2v2.3c3,0.3,7.2,0.4,11.7,0.4c4.5,0,8.7-0.2,11.7-0.4v-2.3"/>
		<path class="st1" d="M79.5,74.3c0,0.5,3.6,1,9.2,1.3V73C83.1,73.2,79.5,73.7,79.5,74.3z"/>
		<path class="st1" d="M121.2,74.3c0-0.5-3.6-1-9.2-1.3v2.6C117.6,75.3,121.2,74.8,121.2,74.3z"/>
		<path class="st1" d="M88.6,73v2.6c3.3,0.2,7.4,0.3,11.7,0.3c4.3,0,8.4-0.1,11.7-0.3V73"/>
		<path class="st1" d="M83.4,67.6c0,0.4,2,0.9,5.2,1.1v-2.3C85.4,66.7,83.4,67.1,83.4,67.6z"/>
		<path class="st1" d="M117.3,67.6c0-0.4-2-0.9-5.2-1.1v2.3C115.3,68.4,117.3,68,117.3,67.6z"/>
		<path class="st1" d="M88.6,66.4v2.3c3,0.3,7.2,0.4,11.7,0.4c4.5,0,8.7-0.2,11.7-0.4v-2.3"/>
		<path class="st1" d="M79.5,102.2c0,0.5,3.6,1,9.2,1.3v-2.6C83.1,101.2,79.5,101.7,79.5,102.2z"/>
		<path class="st1" d="M121.2,102.2c0-0.5-3.6-1-9.2-1.3v2.6C117.6,103.2,121.2,102.8,121.2,102.2z"/>
		<path class="st1" d="M88.6,100.9v2.6c3.3,0.2,7.4,0.3,11.7,0.3c4.3,0,8.4-0.1,11.7-0.3v-2.6"/>
		<path class="st1" d="M79.5,130.6c0,0.5,3.6,1,9.2,1.3v-2.6C83.1,129.6,79.5,130,79.5,130.6z"/>
		<path class="st1" d="M121.2,130.6c0-0.5-3.6-1-9.2-1.3v2.6C117.6,131.6,121.2,131.1,121.2,130.6z"/>
		<path class="st1" d="M88.6,129.3v2.6c3.3,0.2,7.4,0.3,11.7,0.3c4.3,0,8.4-0.1,11.7-0.3v-2.6"/>
		<path class="st1" d="M83.4,109.7c0,0.4,2,0.9,5.2,1.1v-2.3C85.4,108.8,83.4,109.2,83.4,109.7z"/>
		<path class="st1" d="M117.3,109.7c0-0.4-2-0.9-5.2-1.1v2.3C115.3,110.5,117.3,110.1,117.3,109.7z"/>
		<path class="st1" d="M88.6,108.6v2.3c3,0.3,7.2,0.4,11.7,0.4c4.5,0,8.7-0.2,11.7-0.4v-2.3"/>
		<path class="st1" d="M79.5,116c0,0.5,3.6,1,9.2,1.3v-2.6C83.1,115,79.5,115.5,79.5,116z"/>
		<path class="st1" d="M121.2,116c0-0.5-3.6-1-9.2-1.3v2.6C117.6,117,121.2,116.5,121.2,116z"/>
		<path class="st1" d="M88.6,114.7v2.6c3.3,0.2,7.4,0.3,11.7,0.3c4.3,0,8.4-0.1,11.7-0.3v-2.6"/>
		<path class="st1" d="M117.3,123.5c0-0.4-2-0.9-5.2-1.1v2.3C115.3,124.3,117.3,123.9,117.3,123.5z"/>
		<path class="st1" d="M83.4,123.5c0,0.4,2,0.9,5.2,1.1v-2.3C85.4,122.6,83.4,123,83.4,123.5z"/>
		<path class="st1" d="M88.6,122.3v2.3c3,0.3,7.2,0.4,11.7,0.4c4.5,0,8.7-0.2,11.7-0.4v-2.3"/>
		<rect x="83.4" y="79.6" class="st1" width="5.2" height="11.7"/>
		<rect x="112.1" y="79.6" class="st1" width="5.2" height="11.7"/>
		<rect x="88.6" y="79.6" class="st1" width="23.4" height="11.7"/>
		<rect x="94.8" y="33.5" class="st1" width="2.6" height="4"/>
		<rect x="103.3" y="33.5" class="st1" width="2.6" height="4"/>
		<rect x="97.4" y="24.3" class="st1" width="5.8" height="9.2"/>
		<rect x="97.4" y="33.5" class="st1" width="5.8" height="4"/>
		<path class="st1" d="M84.6,138.4c-1.1,0-2,0.9-2,2V151h35.5v-10.6c0-1.1-0.9-2-2-2h-3.5H88.1H84.6z"/>
		<polygon class="st1" points="88.1,135.8 88.1,138.4 112.6,138.4 112.6,135.8 112.1,135.8 88.6,135.8 		"/>
	</g>
</g>
<g>
	<linearGradient id="SVGID_3_" gradientUnits="userSpaceOnUse" x1="162.1844" y1="24.2941" x2="162.1844" y2="151.0383">
		<stop  offset="0" style="stop-color:#33C3DE;stop-opacity:0.2"/>
		<stop  offset="1" style="stop-color:#3699DD;stop-opacity:0.5"/>
	</linearGradient>
	<path class="st3" d="M183.1,60.1c0-0.5-3.6-1-9.2-1.3v-4.3c3.2-0.3,5.2-0.7,5.2-1.1c0-0.4-2-0.9-5.2-1.1v-4.6
		c5.5-0.3,9.2-0.8,9.2-1.3c0-0.5-3.6-1-9.2-1.3v-1.6c0-3.3-2.6-5.9-5.9-5.9h-0.3v-4h-2.6v-9.2h-5.8v9.2h-2.6v4h-0.3
		c-3.3,0-5.9,2.6-5.9,5.9V45c-5.5,0.3-9.2,0.8-9.2,1.3c0,0.5,3.6,1,9.2,1.3v4.6c-3.2,0.3-5.2,0.7-5.2,1.1c0,0.4,2,0.9,5.2,1.1v4.3
		c-5.5,0.3-9.2,0.8-9.2,1.3c0,0.5,3.6,1,9.2,1.3v5c-3.2,0.3-5.2,0.7-5.2,1.1c0,0.4,2,0.9,5.2,1.1V73c-5.5,0.3-9.2,0.8-9.2,1.3
		s3.6,1,9.2,1.3v4.1h-5.2v11.7h5.2v9.6c-5.5,0.3-9.2,0.8-9.2,1.3c0,0.5,3.6,1,9.2,1.3v5c-3.2,0.3-5.2,0.7-5.2,1.1
		c0,0.4,2,0.9,5.2,1.1v3.9c-5.5,0.3-9.2,0.8-9.2,1.3c0,0.5,3.6,1,9.2,1.3v5c-3.2,0.3-5.2,0.7-5.2,1.1c0,0.4,2,0.9,5.2,1.1v4.6
		c-5.5,0.3-9.2,0.8-9.2,1.3c0,0.5,3.6,1,9.2,1.3v3.9H150v2.6h-3.5c-1.1,0-2,0.9-2,2V151h35.5v-10.6c0-1.1-0.9-2-2-2h-3.5v-2.6h-0.5
		v-3.9c5.5-0.3,9.2-0.8,9.2-1.3c0-0.5-3.6-1-9.2-1.3v-4.6c3.2-0.3,5.2-0.7,5.2-1.1c0-0.4-2-0.9-5.2-1.1v-5c5.5-0.3,9.2-0.8,9.2-1.3
		c0-0.5-3.6-1-9.2-1.3v-3.9c3.2-0.3,5.2-0.7,5.2-1.1c0-0.4-2-0.9-5.2-1.1v-5c5.5-0.3,9.2-0.8,9.2-1.3c0-0.5-3.6-1-9.2-1.3v-9.6h5.2
		V79.6h-5.2v-4.1c5.5-0.3,9.2-0.8,9.2-1.3s-3.6-1-9.2-1.3v-4.3c3.2-0.3,5.2-0.7,5.2-1.1c0-0.4-2-0.9-5.2-1.1v-5
		C179.4,61.1,183.1,60.6,183.1,60.1z"/>
	<g>
		<path class="st1" d="M173.9,108.6v-5c-3.3,0.2-7.4,0.3-11.7,0.3c-4.3,0-8.4-0.1-11.7-0.3v5"/>
		<path class="st1" d="M173.9,100.9v-9.6h-23.4v9.6"/>
		<path class="st1" d="M173.9,45v-1.6c0-3.3-2.6-5.9-5.9-5.9h-0.3h-2.6h-5.8h-2.6h-0.3c-3.3,0-5.9,2.6-5.9,5.9V45"/>
		<path class="st1" d="M173.9,129.3v-4.6c-3,0.3-7.2,0.4-11.7,0.4s-8.7-0.2-11.7-0.4v4.6"/>
		<path class="st1" d="M173.9,52.2v-4.6c-3.3,0.2-7.4,0.3-11.7,0.3c-4.3,0-8.4-0.1-11.7-0.3v4.6"/>
		<path class="st1" d="M150.5,131.9v3.9h23.4v-3.9c-3.3,0.2-7.4,0.3-11.7,0.3C157.8,132.2,153.8,132.1,150.5,131.9z"/>
		<path class="st1" d="M173.9,122.3v-5c-3.3,0.2-7.4,0.3-11.7,0.3c-4.3,0-8.4-0.1-11.7-0.3v5"/>
		<path class="st1" d="M173.9,114.7v-3.9c-3,0.3-7.2,0.4-11.7,0.4s-8.7-0.2-11.7-0.4v3.9"/>
		<path class="st1" d="M150.5,75.6v4.1h23.4v-4.1c-3.3,0.2-7.4,0.3-11.7,0.3C157.8,75.8,153.8,75.7,150.5,75.6z"/>
		<path class="st1" d="M173.9,73v-4.3c-3,0.3-7.2,0.4-11.7,0.4s-8.7-0.2-11.7-0.4V73"/>
		<path class="st1" d="M173.9,58.8v-4.3c-3,0.3-7.2,0.4-11.7,0.4s-8.7-0.2-11.7-0.4v4.3"/>
		<path class="st1" d="M173.9,66.4v-5c-3.3,0.2-7.4,0.3-11.7,0.3c-4.3,0-8.4-0.1-11.7-0.3v5"/>
		<path class="st1" d="M141.3,46.3c0,0.5,3.6,1,9.2,1.3V45C144.9,45.3,141.3,45.7,141.3,46.3z"/>
		<path class="st1" d="M183.1,46.3c0-0.5-3.6-1-9.2-1.3v2.6C179.4,47.3,183.1,46.8,183.1,46.3z"/>
		<path class="st1" d="M150.5,45v2.6c3.3,0.2,7.4,0.3,11.7,0.3c4.3,0,8.4-0.1,11.7-0.3"/>
		<path class="st1" d="M141.3,60.1c0,0.5,3.6,1,9.2,1.3v-2.6C144.9,59.1,141.3,59.5,141.3,60.1z"/>
		<path class="st1" d="M183.1,60.1c0-0.5-3.6-1-9.2-1.3v2.6C179.4,61.1,183.1,60.6,183.1,60.1z"/>
		<path class="st1" d="M150.5,58.8v2.6c3.3,0.2,7.4,0.3,11.7,0.3c4.3,0,8.4-0.1,11.7-0.3v-2.6"/>
		<path class="st1" d="M179.1,53.4c0-0.4-2-0.9-5.2-1.1v2.3C177.1,54.2,179.1,53.8,179.1,53.4z"/>
		<path class="st1" d="M145.2,53.4c0,0.4,2,0.9,5.2,1.1v-2.3C147.3,52.5,145.2,52.9,145.2,53.4z"/>
		<path class="st1" d="M150.5,52.2v2.3c3,0.3,7.2,0.4,11.7,0.4s8.7-0.2,11.7-0.4v-2.3"/>
		<path class="st1" d="M141.3,74.3c0,0.5,3.6,1,9.2,1.3V73C144.9,73.2,141.3,73.7,141.3,74.3z"/>
		<path class="st1" d="M183.1,74.3c0-0.5-3.6-1-9.2-1.3v2.6C179.4,75.3,183.1,74.8,183.1,74.3z"/>
		<path class="st1" d="M150.5,73v2.6c3.3,0.2,7.4,0.3,11.7,0.3c4.3,0,8.4-0.1,11.7-0.3V73"/>
		<path class="st1" d="M145.2,67.6c0,0.4,2,0.9,5.2,1.1v-2.3C147.3,66.7,145.2,67.1,145.2,67.6z"/>
		<path class="st1" d="M179.1,67.6c0-0.4-2-0.9-5.2-1.1v2.3C177.1,68.4,179.1,68,179.1,67.6z"/>
		<path class="st1" d="M150.5,66.4v2.3c3,0.3,7.2,0.4,11.7,0.4s8.7-0.2,11.7-0.4v-2.3"/>
		<path class="st1" d="M141.3,102.2c0,0.5,3.6,1,9.2,1.3v-2.6C144.9,101.2,141.3,101.7,141.3,102.2z"/>
		<path class="st1" d="M183.1,102.2c0-0.5-3.6-1-9.2-1.3v2.6C179.4,103.2,183.1,102.8,183.1,102.2z"/>
		<path class="st1" d="M150.5,100.9v2.6c3.3,0.2,7.4,0.3,11.7,0.3c4.3,0,8.4-0.1,11.7-0.3v-2.6"/>
		<path class="st1" d="M141.3,130.6c0,0.5,3.6,1,9.2,1.3v-2.6C144.9,129.6,141.3,130,141.3,130.6z"/>
		<path class="st1" d="M183.1,130.6c0-0.5-3.6-1-9.2-1.3v2.6C179.4,131.6,183.1,131.1,183.1,130.6z"/>
		<path class="st1" d="M150.5,129.3v2.6c3.3,0.2,7.4,0.3,11.7,0.3c4.3,0,8.4-0.1,11.7-0.3v-2.6"/>
		<path class="st1" d="M145.2,109.7c0,0.4,2,0.9,5.2,1.1v-2.3C147.3,108.8,145.2,109.2,145.2,109.7z"/>
		<path class="st1" d="M179.1,109.7c0-0.4-2-0.9-5.2-1.1v2.3C177.1,110.5,179.1,110.1,179.1,109.7z"/>
		<path class="st1" d="M150.5,108.6v2.3c3,0.3,7.2,0.4,11.7,0.4s8.7-0.2,11.7-0.4v-2.3"/>
		<path class="st1" d="M141.3,116c0,0.5,3.6,1,9.2,1.3v-2.6C144.9,115,141.3,115.5,141.3,116z"/>
		<path class="st1" d="M183.1,116c0-0.5-3.6-1-9.2-1.3v2.6C179.4,117,183.1,116.5,183.1,116z"/>
		<path class="st1" d="M150.5,114.7v2.6c3.3,0.2,7.4,0.3,11.7,0.3c4.3,0,8.4-0.1,11.7-0.3v-2.6"/>
		<path class="st1" d="M179.1,123.5c0-0.4-2-0.9-5.2-1.1v2.3C177.1,124.3,179.1,123.9,179.1,123.5z"/>
		<path class="st1" d="M145.2,123.5c0,0.4,2,0.9,5.2,1.1v-2.3C147.3,122.6,145.2,123,145.2,123.5z"/>
		<path class="st1" d="M150.5,122.3v2.3c3,0.3,7.2,0.4,11.7,0.4s8.7-0.2,11.7-0.4v-2.3"/>
		<rect x="145.2" y="79.6" class="st1" width="5.2" height="11.7"/>
		<rect x="173.9" y="79.6" class="st1" width="5.2" height="11.7"/>
		<rect x="150.5" y="79.6" class="st1" width="23.4" height="11.7"/>
		<rect x="156.7" y="33.5" class="st1" width="2.6" height="4"/>
		<rect x="165.1" y="33.5" class="st1" width="2.6" height="4"/>
		<rect x="159.3" y="24.3" class="st1" width="5.8" height="9.2"/>
		<rect x="159.3" y="33.5" class="st1" width="5.8" height="4"/>
		<path class="st1" d="M146.4,138.4c-1.1,0-2,0.9-2,2V151h35.5v-10.6c0-1.1-0.9-2-2-2h-3.5H150H146.4z"/>
		<polygon class="st1" points="150,135.8 150,138.4 174.4,138.4 174.4,135.8 173.9,135.8 150.5,135.8 		"/>
	</g>
</g>
<linearGradient id="SVGID_4_" gradientUnits="userSpaceOnUse" x1="99.9348" y1="144.5195" x2="99.9348" y2="197.3294">
	<stop  offset="0" style="stop-color:#33C3DE;stop-opacity:0.2"/>
	<stop  offset="1" style="stop-color:#3699DD;stop-opacity:0.5"/>
</linearGradient>
<path class="st4" d="M191,191.2v-27h1.7v-12l3.6-5.9h1.9v-1.8h-2.6l-4.6,6.8v0.4H8.8v0l-4.6-6.8H1.6v1.8h1.9l3.6,5.9v12h1.6
	l0.2,26.6H8.8v4.2H3v1.9h6.7c0,0,1,0.3,1-1.4l0.1-4.1h178.4l0.1,4.1c0,1.7,1,1.4,1,1.4h6.7v-1.9H191v-3.5V191.2z"/>
<g>
	<polygon class="st1" points="8.6,151.7 191,151.7 191,191.9 8.9,191.9 	"/>
	<polygon class="st1" points="191,164.2 192.7,164.2 192.7,152.2 196.4,146.3 198.3,146.3 198.3,144.5 195.7,144.5 191,151.3 	"/>
	<path class="st1" d="M189.1,191.2h1.9v4.2h5.9v1.9h-6.7c0,0-1,0.3-1-1.4L189.1,191.2z"/>
	<polygon class="st1" points="8.8,164.5 7.1,164.5 7.1,152.5 3.5,146.7 1.6,146.7 1.6,144.8 4.2,144.8 8.8,151.6 	"/>
	<path class="st1" d="M10.7,191.2H8.8v4.2H3v1.9h6.7c0,0,1,0.3,1-1.4L10.7,191.2z"/>
</g>
<g>
	<path class="st5" d="M136.3,152.1h-7.8v-4.5c0-2.1,1.7-3.9,3.9-3.9s3.9,1.7,3.9,3.9V152.1z M129.1,151.5h6.6v-3.9
		c0-1.8-1.5-3.3-3.3-3.3s-3.3,1.5-3.3,3.3V151.5z"/>
	<path class="st5" d="M132.4,149.8c-1.2,0-2.1-0.9-2.1-2.1c0-1.2,0.9-2.1,2.1-2.1s2.1,0.9,2.1,2.1
		C134.5,148.8,133.5,149.8,132.4,149.8z M132.4,146.2c-0.8,0-1.5,0.7-1.5,1.5c0,0.8,0.7,1.5,1.5,1.5s1.5-0.7,1.5-1.5
		C133.9,146.8,133.2,146.2,132.4,146.2z"/>
</g>
<g>
	<path class="st5" d="M73.3,152.1h-7.8v-4.5c0-2.1,1.7-3.9,3.9-3.9c2.1,0,3.9,1.7,3.9,3.9V152.1z M66.1,151.5h6.6v-3.9
		c0-1.8-1.5-3.3-3.3-3.3c-1.8,0-3.3,1.5-3.3,3.3V151.5z"/>
	<path class="st5" d="M69.4,149.8c-1.2,0-2.1-0.9-2.1-2.1c0-1.2,0.9-2.1,2.1-2.1c1.2,0,2.1,0.9,2.1,2.1
		C71.4,148.8,70.5,149.8,69.4,149.8z M69.4,146.2c-0.8,0-1.5,0.7-1.5,1.5c0,0.8,0.7,1.5,1.5,1.5c0.8,0,1.5-0.7,1.5-1.5
		C70.8,146.8,70.2,146.2,69.4,146.2z"/>
</g>
</svg>
