<?xml version="1.0" encoding="utf-8"?>
<!-- Generator: Adobe Illustrator 23.0.3, SVG Export Plug-In . SVG Version: 6.00 Build 0)  -->
<svg version="1.1" id="图层_1" xmlns="http://www.w3.org/2000/svg" xmlns:xlink="http://www.w3.org/1999/xlink" x="0px" y="0px"
	 viewBox="0 0 200 200" style="enable-background:new 0 0 200 200;" xml:space="preserve">
<style type="text/css">
	.st0{fill:url(#SVGID_1_);}
	.st1{fill:#33C3DE;}
</style>
<linearGradient id="SVGID_1_" gradientUnits="userSpaceOnUse" x1="99.7187" y1="12.5" x2="99.7187" y2="189.5">
	<stop  offset="0" style="stop-color:#33C3DE;stop-opacity:0.2"/>
	<stop  offset="1" style="stop-color:#3699DD;stop-opacity:0.5"/>
</linearGradient>
<path class="st0" d="M175.8,12.5H23.6c-6,0-10.9,4.9-10.9,10.9v155.1c0,6,4.9,10.9,10.9,10.9h152.3c6,0,10.9-4.9,10.9-10.9V23.4
	C186.8,17.4,181.9,12.5,175.8,12.5z"/>
<g>
	<path class="st1" d="M175.8,11H23.6c-6.9,0-12.4,5.6-12.4,12.4v155.1c0,6.9,5.6,12.4,12.4,12.4h152.3c6.9,0,12.4-5.6,12.4-12.4
		V23.4C188.3,16.6,182.7,11,175.8,11z M14.2,41.6h64.2v118.9H14.2V41.6z M81.3,41.6h104v118.9h-104V41.6z M23.6,14h152.3
		c5.2,0,9.4,4.2,9.4,9.4v14.7H14.2V23.4C14.2,18.2,18.4,14,23.6,14z M175.8,188H23.6c-5.2,0-9.4-4.2-9.4-9.4v-14.7h171.1v14.7
		C185.3,183.8,181,188,175.8,188z"/>
	<path class="st1" d="M52.9,89.1H42c-3,0-5.5,2.4-5.5,5.5S39,100,42,100h10.9c3,0,5.5-2.4,5.5-5.5S56,89.1,52.9,89.1z"/>
	<path class="st1" d="M42,67.2h10.9c3,0,5.5-2.4,5.5-5.5s-2.4-5.5-5.5-5.5H42c-3,0-5.5,2.4-5.5,5.5S39,67.2,42,67.2z"/>
	<path class="st1" d="M52.9,121.9H42c-3,0-5.5,2.4-5.5,5.5s2.4,5.5,5.5,5.5h10.9c3,0,5.5-2.4,5.5-5.5S56,121.9,52.9,121.9z"/>
	<path class="st1" d="M141.5,128.9h-21.9c-3,0-5.5,2.4-5.5,5.5s2.4,5.5,5.5,5.5h21.9c3,0,5.5-2.4,5.5-5.5S144.5,128.9,141.5,128.9z"
		/>
	<path class="st1" d="M119.6,68.1h21.9c3,0,5.5-2.4,5.5-5.5s-2.4-5.5-5.5-5.5h-21.9c-3,0-5.5,2.4-5.5,5.5S116.6,68.1,119.6,68.1z"/>
	<path class="st1" d="M123.7,116.2c0.2,0.1,0.4,0.2,0.7,0.2c0.4,0,0.8-0.2,1-0.4l17.3-20.8c0.3-0.4,0.4-1,0.2-1.5
		c-0.2-0.5-0.7-0.8-1.3-0.8H133l4.3-7.6c0.2-0.5,0.2-1,0-1.4c-0.3-0.4-0.7-0.7-1.2-0.7h-8.3c-0.5,0-1,0.3-1.2,0.7L118.2,99
		c-0.2,0.4-0.2,1,0,1.4c0.3,0.4,0.8,0.7,1.2,0.7h7.8l-4.3,13.4C122.8,115.1,123.1,115.8,123.7,116.2z M121.9,98.3l6.8-12.4h5
		l-4.3,7.6c-0.2,0.5-0.2,1,0,1.4c0.3,0.4,0.7,0.7,1.2,0.7h8.1l-10.8,12.9l2.7-8.4c0.1-0.5,0.1-0.9-0.2-1.3c-0.3-0.3-0.7-0.6-1.1-0.6
		H121.9z"/>
</g>
</svg>
